<svg xmlns="http://www.w3.org/2000/svg" xmlns:xlink="http://www.w3.org/1999/xlink" width="500" zoomAndPan="magnify" viewBox="0 0 375 112.499997" height="150" preserveAspectRatio="xMidYMid meet" version="1.0"><defs><g/></defs><g fill="#ffffff" fill-opacity="1"><g transform="translate(111.837189, 72.970916)"><g><path d="M 13.515625 0.1875 C 11.285156 0.1875 9.265625 -0.304688 7.453125 -1.296875 C 5.640625 -2.296875 4.222656 -3.664062 3.203125 -5.40625 C 2.179688 -7.144531 1.671875 -9.097656 1.671875 -11.265625 C 1.671875 -13.429688 2.179688 -15.382812 3.203125 -17.125 C 4.222656 -18.863281 5.640625 -20.226562 7.453125 -21.21875 C 9.265625 -22.21875 11.285156 -22.71875 13.515625 -22.71875 C 15.742188 -22.71875 17.753906 -22.222656 19.546875 -21.234375 C 21.335938 -20.253906 22.75 -18.890625 23.78125 -17.140625 C 24.8125 -15.390625 25.328125 -13.429688 25.328125 -11.265625 C 25.328125 -9.097656 24.8125 -7.140625 23.78125 -5.390625 C 22.75 -3.640625 21.335938 -2.269531 19.546875 -1.28125 C 17.753906 -0.300781 15.742188 0.1875 13.515625 0.1875 Z M 13.515625 -1.9375 C 15.296875 -1.9375 16.90625 -2.335938 18.34375 -3.140625 C 19.78125 -3.941406 20.90625 -5.054688 21.71875 -6.484375 C 22.539062 -7.910156 22.953125 -9.503906 22.953125 -11.265625 C 22.953125 -13.023438 22.539062 -14.617188 21.71875 -16.046875 C 20.90625 -17.472656 19.78125 -18.585938 18.34375 -19.390625 C 16.90625 -20.191406 15.296875 -20.59375 13.515625 -20.59375 C 11.734375 -20.59375 10.117188 -20.191406 8.671875 -19.390625 C 7.222656 -18.585938 6.082031 -17.472656 5.25 -16.046875 C 4.425781 -14.617188 4.015625 -13.023438 4.015625 -11.265625 C 4.015625 -9.503906 4.425781 -7.910156 5.25 -6.484375 C 6.082031 -5.054688 7.222656 -3.941406 8.671875 -3.140625 C 10.117188 -2.335938 11.734375 -1.9375 13.515625 -1.9375 Z M 13.515625 -1.9375 "/></g></g></g><g fill="#ffffff" fill-opacity="1"><g transform="translate(138.846176, 72.970916)"><g><path d="M 17.859375 -11.625 C 19.335938 -11.300781 20.476562 -10.660156 21.28125 -9.703125 C 22.09375 -8.742188 22.5 -7.515625 22.5 -6.015625 C 22.5 -4.085938 21.785156 -2.601562 20.359375 -1.5625 C 18.929688 -0.519531 16.820312 0 14.03125 0 L 3.671875 0 L 3.671875 -22.53125 L 13.390625 -22.53125 C 15.898438 -22.53125 17.847656 -22.023438 19.234375 -21.015625 C 20.617188 -20.003906 21.3125 -18.578125 21.3125 -16.734375 C 21.3125 -15.492188 21.003906 -14.4375 20.390625 -13.5625 C 19.773438 -12.695312 18.929688 -12.050781 17.859375 -11.625 Z M 6.046875 -20.5625 L 6.046875 -12.390625 L 13.234375 -12.390625 C 15.054688 -12.390625 16.457031 -12.738281 17.4375 -13.4375 C 18.425781 -14.132812 18.921875 -15.148438 18.921875 -16.484375 C 18.921875 -17.804688 18.425781 -18.816406 17.4375 -19.515625 C 16.457031 -20.210938 15.054688 -20.5625 13.234375 -20.5625 Z M 14 -1.96875 C 16.019531 -1.96875 17.539062 -2.304688 18.5625 -2.984375 C 19.59375 -3.671875 20.109375 -4.75 20.109375 -6.21875 C 20.109375 -9.019531 18.070312 -10.421875 14 -10.421875 L 6.046875 -10.421875 L 6.046875 -1.96875 Z M 14 -1.96875 "/></g></g></g><g fill="#ffffff" fill-opacity="1"><g transform="translate(163.118855, 72.970916)"><g><path d="M 3.671875 -22.53125 L 6.046875 -22.53125 L 6.046875 0 L 3.671875 0 Z M 3.671875 -22.53125 "/></g></g></g><g fill="#ffffff" fill-opacity="1"><g transform="translate(172.840802, 72.970916)"><g><path d="M 3.671875 -22.53125 L 12.84375 -22.53125 C 15.226562 -22.53125 17.332031 -22.050781 19.15625 -21.09375 C 20.976562 -20.144531 22.390625 -18.816406 23.390625 -17.109375 C 24.398438 -15.398438 24.90625 -13.453125 24.90625 -11.265625 C 24.90625 -9.078125 24.398438 -7.128906 23.390625 -5.421875 C 22.390625 -3.710938 20.976562 -2.378906 19.15625 -1.421875 C 17.332031 -0.472656 15.226562 0 12.84375 0 L 3.671875 0 Z M 12.71875 -2.0625 C 14.6875 -2.0625 16.410156 -2.453125 17.890625 -3.234375 C 19.367188 -4.015625 20.515625 -5.097656 21.328125 -6.484375 C 22.148438 -7.867188 22.5625 -9.460938 22.5625 -11.265625 C 22.5625 -13.066406 22.148438 -14.660156 21.328125 -16.046875 C 20.515625 -17.429688 19.367188 -18.515625 17.890625 -19.296875 C 16.410156 -20.078125 14.6875 -20.46875 12.71875 -20.46875 L 6.046875 -20.46875 L 6.046875 -2.0625 Z M 12.71875 -2.0625 "/></g></g></g><g fill="#ffffff" fill-opacity="1"><g transform="translate(199.431297, 72.970916)"><g><path d="M 17.796875 -6.015625 L 5.25 -6.015625 L 2.546875 0 L 0.0625 0 L 10.359375 -22.53125 L 12.71875 -22.53125 L 23.015625 0 L 20.5 0 Z M 16.9375 -7.953125 L 11.515625 -20.046875 L 6.109375 -7.953125 Z M 16.9375 -7.953125 "/></g></g></g><path stroke-linecap="round" transform="matrix(0, 0.746681, -0.746681, 0, 227.403402, 46.029164)" fill="none" stroke-linejoin="miter" d="M 0.499784 0.498408 L 42.571361 0.498408 " stroke="#ffffff" stroke-width="1" stroke-opacity="1" stroke-miterlimit="4"/><g fill="#ffffff" fill-opacity="1"><g transform="translate(232.418068, 61.88129)"><g><path d="M 5.984375 -3.609375 L 4.625 0 L 4.15625 0 L 3.015625 -2.96875 L 1.875 0 L 1.421875 0 L 0.0625 -3.609375 L 0.515625 -3.609375 L 1.65625 -0.546875 L 2.8125 -3.609375 L 3.234375 -3.609375 L 4.390625 -0.546875 L 5.546875 -3.609375 Z M 5.984375 -3.609375 "/></g></g></g><g fill="#ffffff" fill-opacity="1"><g transform="translate(239.470374, 61.88129)"><g><path d="M 3.828125 -1.65625 L 0.796875 -1.65625 C 0.828125 -1.28125 0.972656 -0.976562 1.234375 -0.75 C 1.492188 -0.519531 1.828125 -0.40625 2.234375 -0.40625 C 2.453125 -0.40625 2.65625 -0.441406 2.84375 -0.515625 C 3.03125 -0.597656 3.191406 -0.71875 3.328125 -0.875 L 3.609375 -0.5625 C 3.453125 -0.363281 3.25 -0.210938 3 -0.109375 C 2.757812 -0.015625 2.5 0.03125 2.21875 0.03125 C 1.84375 0.03125 1.507812 -0.046875 1.21875 -0.203125 C 0.9375 -0.359375 0.710938 -0.578125 0.546875 -0.859375 C 0.390625 -1.140625 0.3125 -1.457031 0.3125 -1.8125 C 0.3125 -2.164062 0.390625 -2.476562 0.546875 -2.75 C 0.703125 -3.03125 0.910156 -3.25 1.171875 -3.40625 C 1.441406 -3.5625 1.742188 -3.640625 2.078125 -3.640625 C 2.410156 -3.640625 2.707031 -3.5625 2.96875 -3.40625 C 3.238281 -3.25 3.453125 -3.03125 3.609375 -2.75 C 3.765625 -2.476562 3.84375 -2.164062 3.84375 -1.8125 Z M 2.078125 -3.21875 C 1.734375 -3.21875 1.441406 -3.109375 1.203125 -2.890625 C 0.972656 -2.671875 0.835938 -2.378906 0.796875 -2.015625 L 3.375 -2.015625 C 3.34375 -2.378906 3.207031 -2.671875 2.96875 -2.890625 C 2.726562 -3.109375 2.429688 -3.21875 2.078125 -3.21875 Z M 2.078125 -3.21875 "/></g></g></g><g fill="#ffffff" fill-opacity="1"><g transform="translate(244.634557, 61.88129)"><g><path d="M 2.546875 -3.640625 C 2.878906 -3.640625 3.179688 -3.5625 3.453125 -3.40625 C 3.734375 -3.257812 3.953125 -3.046875 4.109375 -2.765625 C 4.265625 -2.484375 4.34375 -2.164062 4.34375 -1.8125 C 4.34375 -1.445312 4.265625 -1.125 4.109375 -0.84375 C 3.953125 -0.570312 3.734375 -0.359375 3.453125 -0.203125 C 3.179688 -0.046875 2.878906 0.03125 2.546875 0.03125 C 2.242188 0.03125 1.972656 -0.03125 1.734375 -0.15625 C 1.492188 -0.28125 1.296875 -0.46875 1.140625 -0.71875 L 1.140625 0 L 0.6875 0 L 0.6875 -5.09375 L 1.171875 -5.09375 L 1.171875 -2.921875 C 1.316406 -3.160156 1.507812 -3.335938 1.75 -3.453125 C 1.988281 -3.578125 2.253906 -3.640625 2.546875 -3.640625 Z M 2.515625 -0.40625 C 2.765625 -0.40625 2.988281 -0.460938 3.1875 -0.578125 C 3.394531 -0.691406 3.554688 -0.851562 3.671875 -1.0625 C 3.796875 -1.28125 3.859375 -1.53125 3.859375 -1.8125 C 3.859375 -2.082031 3.796875 -2.320312 3.671875 -2.53125 C 3.554688 -2.75 3.394531 -2.914062 3.1875 -3.03125 C 2.988281 -3.15625 2.765625 -3.21875 2.515625 -3.21875 C 2.253906 -3.21875 2.019531 -3.15625 1.8125 -3.03125 C 1.613281 -2.914062 1.453125 -2.75 1.328125 -2.53125 C 1.210938 -2.320312 1.15625 -2.082031 1.15625 -1.8125 C 1.15625 -1.53125 1.210938 -1.28125 1.328125 -1.0625 C 1.453125 -0.851562 1.613281 -0.691406 1.8125 -0.578125 C 2.019531 -0.460938 2.253906 -0.40625 2.515625 -0.40625 Z M 2.515625 -0.40625 "/></g></g></g><g fill="#ffffff" fill-opacity="1"><g transform="translate(250.312244, 61.88129)"><g/></g></g><g fill="#ffffff" fill-opacity="1"><g transform="translate(232.418068, 71.136465)"><g><path d="M 3.984375 -5.09375 L 3.984375 0 L 3.515625 0 L 3.515625 -0.71875 C 3.367188 -0.46875 3.175781 -0.28125 2.9375 -0.15625 C 2.695312 -0.03125 2.425781 0.03125 2.125 0.03125 C 1.78125 0.03125 1.46875 -0.046875 1.1875 -0.203125 C 0.914062 -0.359375 0.703125 -0.570312 0.546875 -0.84375 C 0.390625 -1.125 0.3125 -1.445312 0.3125 -1.8125 C 0.3125 -2.164062 0.390625 -2.484375 0.546875 -2.765625 C 0.703125 -3.046875 0.914062 -3.257812 1.1875 -3.40625 C 1.46875 -3.5625 1.78125 -3.640625 2.125 -3.640625 C 2.414062 -3.640625 2.675781 -3.578125 2.90625 -3.453125 C 3.144531 -3.335938 3.34375 -3.160156 3.5 -2.921875 L 3.5 -5.09375 Z M 2.15625 -0.40625 C 2.40625 -0.40625 2.632812 -0.460938 2.84375 -0.578125 C 3.050781 -0.691406 3.210938 -0.851562 3.328125 -1.0625 C 3.441406 -1.28125 3.5 -1.53125 3.5 -1.8125 C 3.5 -2.082031 3.441406 -2.320312 3.328125 -2.53125 C 3.210938 -2.75 3.050781 -2.914062 2.84375 -3.03125 C 2.632812 -3.15625 2.40625 -3.21875 2.15625 -3.21875 C 1.90625 -3.21875 1.675781 -3.15625 1.46875 -3.03125 C 1.257812 -2.914062 1.097656 -2.75 0.984375 -2.53125 C 0.867188 -2.320312 0.8125 -2.082031 0.8125 -1.8125 C 0.8125 -1.53125 0.867188 -1.28125 0.984375 -1.0625 C 1.097656 -0.851562 1.257812 -0.691406 1.46875 -0.578125 C 1.675781 -0.460938 1.90625 -0.40625 2.15625 -0.40625 Z M 2.15625 -0.40625 "/></g></g></g><g fill="#ffffff" fill-opacity="1"><g transform="translate(238.090327, 71.136465)"><g><path d="M 3.828125 -1.65625 L 0.796875 -1.65625 C 0.828125 -1.28125 0.972656 -0.976562 1.234375 -0.75 C 1.492188 -0.519531 1.828125 -0.40625 2.234375 -0.40625 C 2.453125 -0.40625 2.65625 -0.441406 2.84375 -0.515625 C 3.03125 -0.597656 3.191406 -0.71875 3.328125 -0.875 L 3.609375 -0.5625 C 3.453125 -0.363281 3.25 -0.210938 3 -0.109375 C 2.757812 -0.015625 2.5 0.03125 2.21875 0.03125 C 1.84375 0.03125 1.507812 -0.046875 1.21875 -0.203125 C 0.9375 -0.359375 0.710938 -0.578125 0.546875 -0.859375 C 0.390625 -1.140625 0.3125 -1.457031 0.3125 -1.8125 C 0.3125 -2.164062 0.390625 -2.476562 0.546875 -2.75 C 0.703125 -3.03125 0.910156 -3.25 1.171875 -3.40625 C 1.441406 -3.5625 1.742188 -3.640625 2.078125 -3.640625 C 2.410156 -3.640625 2.707031 -3.5625 2.96875 -3.40625 C 3.238281 -3.25 3.453125 -3.03125 3.609375 -2.75 C 3.765625 -2.476562 3.84375 -2.164062 3.84375 -1.8125 Z M 2.078125 -3.21875 C 1.734375 -3.21875 1.441406 -3.109375 1.203125 -2.890625 C 0.972656 -2.671875 0.835938 -2.378906 0.796875 -2.015625 L 3.375 -2.015625 C 3.34375 -2.378906 3.207031 -2.671875 2.96875 -2.890625 C 2.726562 -3.109375 2.429688 -3.21875 2.078125 -3.21875 Z M 2.078125 -3.21875 "/></g></g></g><g fill="#ffffff" fill-opacity="1"><g transform="translate(243.254509, 71.136465)"><g><path d="M 1.65625 0.03125 C 1.351562 0.03125 1.066406 -0.0078125 0.796875 -0.09375 C 0.535156 -0.175781 0.328125 -0.28125 0.171875 -0.40625 L 0.40625 -0.796875 C 0.550781 -0.679688 0.738281 -0.582031 0.96875 -0.5 C 1.195312 -0.425781 1.4375 -0.390625 1.6875 -0.390625 C 2.007812 -0.390625 2.25 -0.441406 2.40625 -0.546875 C 2.570312 -0.648438 2.65625 -0.796875 2.65625 -0.984375 C 2.65625 -1.117188 2.609375 -1.222656 2.515625 -1.296875 C 2.429688 -1.367188 2.320312 -1.425781 2.1875 -1.46875 C 2.0625 -1.507812 1.882812 -1.546875 1.65625 -1.578125 C 1.363281 -1.628906 1.128906 -1.679688 0.953125 -1.734375 C 0.773438 -1.796875 0.625 -1.894531 0.5 -2.03125 C 0.375 -2.175781 0.3125 -2.367188 0.3125 -2.609375 C 0.3125 -2.910156 0.4375 -3.15625 0.6875 -3.34375 C 0.9375 -3.539062 1.285156 -3.640625 1.734375 -3.640625 C 1.972656 -3.640625 2.207031 -3.609375 2.4375 -3.546875 C 2.675781 -3.484375 2.867188 -3.40625 3.015625 -3.3125 L 2.8125 -2.921875 C 2.507812 -3.117188 2.148438 -3.21875 1.734375 -3.21875 C 1.421875 -3.21875 1.1875 -3.160156 1.03125 -3.046875 C 0.875 -2.941406 0.796875 -2.800781 0.796875 -2.625 C 0.796875 -2.488281 0.835938 -2.378906 0.921875 -2.296875 C 1.015625 -2.210938 1.128906 -2.148438 1.265625 -2.109375 C 1.398438 -2.078125 1.582031 -2.039062 1.8125 -2 C 2.101562 -1.9375 2.332031 -1.878906 2.5 -1.828125 C 2.675781 -1.773438 2.828125 -1.679688 2.953125 -1.546875 C 3.078125 -1.410156 3.140625 -1.226562 3.140625 -1 C 3.140625 -0.675781 3.003906 -0.421875 2.734375 -0.234375 C 2.472656 -0.0546875 2.113281 0.03125 1.65625 0.03125 Z M 1.65625 0.03125 "/></g></g></g><g fill="#ffffff" fill-opacity="1"><g transform="translate(247.62911, 71.136465)"><g><path d="M 0.6875 -3.609375 L 1.171875 -3.609375 L 1.171875 0 L 0.6875 0 Z M 0.921875 -4.40625 C 0.816406 -4.40625 0.726562 -4.4375 0.65625 -4.5 C 0.59375 -4.570312 0.5625 -4.65625 0.5625 -4.75 C 0.5625 -4.84375 0.59375 -4.921875 0.65625 -4.984375 C 0.726562 -5.054688 0.816406 -5.09375 0.921875 -5.09375 C 1.023438 -5.09375 1.109375 -5.0625 1.171875 -5 C 1.242188 -4.9375 1.28125 -4.859375 1.28125 -4.765625 C 1.28125 -4.660156 1.242188 -4.570312 1.171875 -4.5 C 1.109375 -4.4375 1.023438 -4.40625 0.921875 -4.40625 Z M 0.921875 -4.40625 "/></g></g></g><g fill="#ffffff" fill-opacity="1"><g transform="translate(250.493215, 71.136465)"><g><path d="M 4.03125 -3.609375 L 4.03125 -0.4375 C 4.03125 0.175781 3.878906 0.628906 3.578125 0.921875 C 3.273438 1.222656 2.820312 1.375 2.21875 1.375 C 1.882812 1.375 1.566406 1.320312 1.265625 1.21875 C 0.960938 1.125 0.71875 0.988281 0.53125 0.8125 L 0.78125 0.4375 C 0.957031 0.59375 1.171875 0.710938 1.421875 0.796875 C 1.671875 0.890625 1.929688 0.9375 2.203125 0.9375 C 2.660156 0.9375 3 0.828125 3.21875 0.609375 C 3.4375 0.398438 3.546875 0.0703125 3.546875 -0.375 L 3.546875 -0.84375 C 3.390625 -0.613281 3.1875 -0.4375 2.9375 -0.3125 C 2.695312 -0.195312 2.425781 -0.140625 2.125 -0.140625 C 1.789062 -0.140625 1.484375 -0.210938 1.203125 -0.359375 C 0.929688 -0.503906 0.710938 -0.710938 0.546875 -0.984375 C 0.390625 -1.253906 0.3125 -1.554688 0.3125 -1.890625 C 0.3125 -2.234375 0.390625 -2.535156 0.546875 -2.796875 C 0.710938 -3.066406 0.929688 -3.273438 1.203125 -3.421875 C 1.472656 -3.566406 1.78125 -3.640625 2.125 -3.640625 C 2.4375 -3.640625 2.710938 -3.578125 2.953125 -3.453125 C 3.203125 -3.328125 3.40625 -3.148438 3.5625 -2.921875 L 3.5625 -3.609375 Z M 2.171875 -0.578125 C 2.441406 -0.578125 2.679688 -0.628906 2.890625 -0.734375 C 3.097656 -0.847656 3.257812 -1.003906 3.375 -1.203125 C 3.488281 -1.410156 3.546875 -1.640625 3.546875 -1.890625 C 3.546875 -2.148438 3.488281 -2.378906 3.375 -2.578125 C 3.257812 -2.773438 3.097656 -2.929688 2.890625 -3.046875 C 2.679688 -3.160156 2.441406 -3.21875 2.171875 -3.21875 C 1.910156 -3.21875 1.675781 -3.160156 1.46875 -3.046875 C 1.257812 -2.941406 1.097656 -2.785156 0.984375 -2.578125 C 0.867188 -2.378906 0.8125 -2.148438 0.8125 -1.890625 C 0.8125 -1.640625 0.867188 -1.410156 0.984375 -1.203125 C 1.097656 -1.003906 1.257812 -0.847656 1.46875 -0.734375 C 1.675781 -0.628906 1.910156 -0.578125 2.171875 -0.578125 Z M 2.171875 -0.578125 "/></g></g></g><g fill="#ffffff" fill-opacity="1"><g transform="translate(256.220396, 71.136465)"><g><path d="M 2.515625 -3.640625 C 2.972656 -3.640625 3.335938 -3.507812 3.609375 -3.25 C 3.878906 -2.988281 4.015625 -2.601562 4.015625 -2.09375 L 4.015625 0 L 3.515625 0 L 3.515625 -2.046875 C 3.515625 -2.421875 3.421875 -2.707031 3.234375 -2.90625 C 3.046875 -3.101562 2.78125 -3.203125 2.4375 -3.203125 C 2.039062 -3.203125 1.726562 -3.085938 1.5 -2.859375 C 1.28125 -2.628906 1.171875 -2.304688 1.171875 -1.890625 L 1.171875 0 L 0.6875 0 L 0.6875 -3.609375 L 1.140625 -3.609375 L 1.140625 -2.953125 C 1.273438 -3.171875 1.460938 -3.335938 1.703125 -3.453125 C 1.941406 -3.578125 2.210938 -3.640625 2.515625 -3.640625 Z M 2.515625 -3.640625 "/></g></g></g></svg>